<?xml version="1.0" encoding="utf-8"?>
<!-- Generator: Adobe Illustrator 15.1.0, SVG Export Plug-In . SVG Version: 6.00 Build 0)  -->
<!DOCTYPE svg PUBLIC "-//W3C//DTD SVG 1.1//EN" "http://www.w3.org/Graphics/SVG/1.1/DTD/svg11.dtd" [
	<!ENTITY ns_extend "http://ns.adobe.com/Extensibility/1.0/">
	<!ENTITY ns_ai "http://ns.adobe.com/AdobeIllustrator/10.0/">
	<!ENTITY ns_graphs "http://ns.adobe.com/Graphs/1.0/">
	<!ENTITY ns_vars "http://ns.adobe.com/Variables/1.0/">
	<!ENTITY ns_imrep "http://ns.adobe.com/ImageReplacement/1.0/">
	<!ENTITY ns_sfw "http://ns.adobe.com/SaveForWeb/1.0/">
	<!ENTITY ns_custom "http://ns.adobe.com/GenericCustomNamespace/1.0/">
	<!ENTITY ns_adobe_xpath "http://ns.adobe.com/XPath/1.0/">
]>
<svg version="1.1" id="レイヤー_1" xmlns:x="&ns_extend;" xmlns:i="&ns_ai;" xmlns:graph="&ns_graphs;"
	 xmlns="http://www.w3.org/2000/svg" xmlns:xlink="http://www.w3.org/1999/xlink" x="0px" y="0px" width="313px" height="296px"
	 viewBox="0 0 313 296" enable-background="new 0 0 313 296" xml:space="preserve">
<metadata>
	<sfw  xmlns="&ns_sfw;">
		<slices></slices>
		<sliceSourceBounds  height="222.593" width="285.12" y="-260.711" x="12.593" bottomLeftOrigin="true"></sliceSourceBounds>
	</sfw>
</metadata>
<g>
	<path fill="#EEEEEB" d="M95.838,99.222c-0.668,1.158-1.081,2.462-1.079,3.629l0.006,40.432c0.001,1.17,0.826,1.646,1.841,1.063
		c-1.015,0.583-2.672,0.584-3.688-0.002l-14.732-8.506c-1.013-0.584-1.843-2.021-1.84-3.191V92.22
		c-0.004-1.169,0.411-2.472,1.08-3.629L95.838,99.222z"/>
	<path fill="#F8F8F6" d="M98.447,96.475l66.326-38.279c1.013-0.586,1.829-0.104,1.821,1.067l0.003,40.424
		c0.002,2.343-1.657,5.215-3.685,6.381l-66.304,38.278c-1.011,0.588-1.841,0.109-1.846-1.062l-0.002-40.432
		c-0.001-1.167,0.412-2.471,1.08-3.629C96.512,98.07,97.433,97.059,98.447,96.475z"/>
	<path fill="#F1F2EF" d="M95.842,99.224c0.667-1.155,1.591-2.167,2.607-2.752l66.324-38.276c1.013-0.586,1.825-0.105,1.822,1.065
		c0.003-1.17-0.826-2.604-1.841-3.191l-14.729-8.503c-1.009-0.583-2.668-0.585-3.681,0.001L80.032,85.838
		c-1.016,0.585-1.939,1.597-2.606,2.752L95.842,99.224z"/>
	<path fill="#FBFBF9" d="M162.01,102.344c0.505-0.292,0.92-1.008,0.922-1.597l-0.001-36.169c0.001-0.581-0.417-0.822-0.921-0.531
		l-62.636,36.153c-0.507,0.294-0.922,1.014-0.921,1.595l0.002,36.168c-0.002,0.586,0.412,0.825,0.921,0.533L162.01,102.344z"/>
	<path fill="#D2D2D3" d="M98.382,96.362l66.327-38.275c0.528-0.305,1.034-0.35,1.418-0.129c0.386,0.227,0.599,0.688,0.598,1.304
		l-0.253,0c0.001-0.522-0.167-0.906-0.474-1.083c-0.305-0.176-0.714-0.131-1.161,0.127L98.51,96.581
		c-2,1.155-3.624,3.968-3.622,6.273l0.002,40.43c0.002,0.519,0.176,0.902,0.483,1.081c0.309,0.177,0.726,0.132,1.175-0.128
		l0.127,0.222c-0.53,0.303-1.037,0.347-1.43,0.125c-0.389-0.225-0.608-0.687-0.61-1.3l-0.003-40.432
		c0-1.192,0.423-2.518,1.099-3.689C96.41,97.988,97.348,96.961,98.382,96.362z"/>
	<path fill="#B5B4B5" d="M83.967,98.608l-0.003,40.422c0.001,0.009,0.002,0.019,0.001,0.03c-0.01,0.139-0.13,0.246-0.271,0.239
		c-0.14-0.011-0.246-0.131-0.239-0.271l0.003-40.422C83.459,98.562,83.969,98.468,83.967,98.608z M87.271,89.876l22.201-12.771
		c0.113-0.059,0.465,0.267,0.349,0.346L87.526,90.318c-1.964,1.131-3.559,3.894-3.557,6.159v2.129c0,0.001,0,0.001,0,0.001
		c-0.001,0.141-0.113,0.254-0.253,0.252c-0.142-0.002-0.255-0.115-0.255-0.254v-2.132c-0.001-1.209,0.426-2.558,1.115-3.752
		C85.268,91.526,86.222,90.483,87.271,89.876z M109.472,77.105c0.021-0.037,0.054-0.073,0.093-0.097l45.866-26.462
		c0.123-0.072,0.278-0.032,0.348,0.092c0.071,0.12,0.032,0.275-0.089,0.346L109.82,77.451c0,0,0,0-0.003,0
		C109.696,77.521,109.472,77.105,109.472,77.105z"/>
	<path fill="#898989" d="M76.984,88.34c0.742-1.286,1.736-2.331,2.791-2.941l66.314-38.273c1.176-0.677,3.018-0.677,4.19,0
		l14.729,8.504c1.177,0.68,2.1,2.276,2.096,3.633l0.001,40.421c0,1.222-0.407,2.602-1.149,3.887
		c-0.744,1.289-1.733,2.328-2.791,2.936l-66.307,38.282c-1.179,0.678-3.021,0.678-4.196-0.001l-14.732-8.505
		c-1.176-0.68-2.095-2.277-2.097-3.633l0.002-40.427C75.835,91,76.243,89.624,76.984,88.34L76.984,88.34z M166.085,99.686
		l0.001-40.423c0.001-0.99-0.725-2.252-1.587-2.75l-14.729-8.503c-0.859-0.497-2.31-0.495-3.172,0L80.283,86.28
		c-0.904,0.523-1.763,1.435-2.416,2.567l-0.002,0.002c-0.652,1.131-1.012,2.327-1.013,3.37l0.002,40.431
		c-0.002,0.989,0.725,2.25,1.585,2.747l14.732,8.506c0.86,0.497,2.316,0.499,3.18,0.004l66.306-38.281
		c0.904-0.52,1.763-1.433,2.417-2.565C165.728,101.929,166.088,100.731,166.085,99.686z"/>
	<path fill="#D2D2D3" d="M99.309,100.089l62.638-36.153c0.285-0.164,0.563-0.185,0.78-0.06c0.215,0.124,0.332,0.374,0.334,0.703
		v36.169c-0.001,0.612-0.457,1.402-0.984,1.706l-62.635,36.151c-0.286,0.166-0.563,0.188-0.779,0.063
		c-0.216-0.124-0.336-0.376-0.332-0.706l-0.003-36.167c0.011-0.343,0.11-0.678,0.286-0.971
		C98.778,100.525,99.02,100.273,99.309,100.089z M162.804,100.748L162.8,64.577c0.001-0.232-0.074-0.403-0.206-0.48
		c-0.133-0.076-0.319-0.056-0.523,0.06l-62.631,36.152c-0.452,0.262-0.859,0.966-0.859,1.488l0.002,36.166
		c-0.003,0.238,0.071,0.412,0.205,0.489c0.132,0.075,0.321,0.055,0.525-0.067l62.635-36.149c0.252-0.16,0.457-0.379,0.602-0.641
		C162.704,101.338,162.793,101.046,162.804,100.748z"/>
</g>
<g>
	<g>
		<path fill="none" stroke="#4BBDC6" stroke-width="8.5039" stroke-miterlimit="10" d="M12.593,222.973"/>
		<path fill="none" stroke="#4BBDC6" stroke-width="8.5039" stroke-miterlimit="10" d="M275.597,40.176"/>
		<path fill="none" stroke="#4BBDC6" stroke-width="8.5039" stroke-miterlimit="10" d="M28.658,208.746
			c27.857,29.328,67.89,47.713,112.387,47.713c84.203,0,152.416-65.836,152.416-147.101c0-25.014-6.46-48.563-17.864-69.183"/>
		<path fill="none" stroke="#4BBDC6" stroke-width="8.5039" stroke-miterlimit="10" d="M28.658,208.746"/>
		<path fill="none" stroke="#4BBDC6" stroke-width="8.5039" stroke-miterlimit="10" d="M44.71,194.568"/>
		<path fill="none" stroke="#4BBDC6" stroke-width="8.5039" stroke-miterlimit="10" d="M256.381,50.045"/>
		<path fill="none" stroke="#4BBDC6" stroke-width="8.5039" stroke-miterlimit="10" d="M237.174,59.919"/>
		<path fill="none" stroke="#4BBDC6" stroke-width="8.5039" stroke-miterlimit="10" d="M60.739,180.374
			c19.894,20.942,48.484,34.056,80.306,34.056c60.219,0,108.869-46.954,108.869-105.071c0-17.886-4.605-34.712-12.74-49.439"/>
		<path fill="none" stroke="#4BBDC6" stroke-width="8.5039" stroke-miterlimit="10" d="M60.739,180.374"/>
		<path fill="none" stroke="#4BBDC6" stroke-width="8.5039" stroke-miterlimit="10" d="M76.813,166.159"/>
		<path fill="none" stroke="#4BBDC6" stroke-width="8.5039" stroke-miterlimit="10" d="M217.938,69.813"/>
		<path fill="none" stroke="#4BBDC6" stroke-width="8.5039" stroke-miterlimit="10" d="M198.698,79.701"/>
		<path fill="none" stroke="#4BBDC6" stroke-width="8.5039" stroke-miterlimit="10" d="M92.888,151.943
			c11.94,12.572,29.098,20.459,48.157,20.459c36.063,0,65.32-28.24,65.32-63.044c0-10.721-2.775-20.817-7.667-29.657"/>
		<path fill="none" stroke="#4BBDC6" stroke-width="8.5039" stroke-miterlimit="10" d="M92.888,151.943"/>
		<path fill="none" stroke="#4BBDC6" stroke-width="8.5039" stroke-miterlimit="10" d="M108.938,137.767"/>
		<path fill="none" stroke="#4BBDC6" stroke-width="8.5039" stroke-miterlimit="10" d="M179.785,90.135"/>
		<path fill="none" stroke="#4BBDC6" stroke-width="8.5039" stroke-miterlimit="10" d="M160.299,99.488"/>
		<path fill="none" stroke="#4BBDC6" stroke-width="8.5039" stroke-miterlimit="10" d="M124.976,123.582
			c3.974,4.181,9.69,6.791,16.069,6.791c12.078,0,21.774-9.358,21.774-21.015c0-3.574-0.913-6.932-2.521-9.87"/>
		<path fill="none" stroke="#4BBDC6" stroke-width="8.5039" stroke-miterlimit="10" d="M124.976,123.582"/>
	</g>
	<g>
	</g>
</g>
</svg>
